# xmcd CD database file
#
# Track frame offsets:
#	150
#	19497
#	29367
#	42047
#	48250
#	77525
#	87307
#	112070
#	131440
#	156112
#	165675
#	174237
#	182245
#	188247
#	231782
#
# Disc length: 3338 seconds
#
# Revision: 2
# Processed by: cddbd v1.5.1PL0 Copyright (c) Steve Scherf et al.
# Submitted via: CDex 1.51
#
DISCID=ba0d080f
DTITLE=Othar Turner - Everybody Hollerin' Goat
DYEAR=1997
DGENRE=Blues
TTITLE0=Shimmy She Wobble
TTITLE1=Bounceball
TTITLE2=Short'Nin' /Henduck
TTITLE3=Too Slow
TTITLE4=Shimmy She Wobble
TTITLE5=Station Blues
TTITLE6=Shake 'Em
TTITLE7=My Babe
TTITLE8=Boogie
TTITLE9=How Many Mo' Years
TTITLE10=Roll and Tumble
TTITLE11=2-Stepping Place
TTITLE12=Granny, Do Your Dog Bite?
TTITLE13=Shimmy She Wobble
TTITLE14=Glory, Glory, Hallelujah!
EXTD=YEAR: 1997
EXTT0=
EXTT1=
EXTT2=
EXTT3=
EXTT4=
EXTT5=
EXTT6=
EXTT7=
EXTT8=
EXTT9=
EXTT10=
EXTT11=
EXTT12=
EXTT13=
EXTT14=
PLAYORDER=
